<?xml version="1.0" encoding="UTF-8"?>
<!DOCTYPE svg PUBLIC "-//W3C//DTD SVG 1.1//EN" "http://www.w3.org/Graphics/SVG/1.1/DTD/svg11.dtd">
<svg xmlns="http://www.w3.org/2000/svg" version="1.1" viewBox="0 0 1200 312" style="shape-rendering:geometricPrecision; text-rendering:geometricPrecision; image-rendering:optimizeQuality; fill-rule:evenodd; clip-rule:evenodd" xmlns:xlink="http://www.w3.org/1999/xlink">
<g><path style="opacity:0.942" fill="#e7771f" d="M 1068.5,-0.5 C 1069.17,-0.5 1069.83,-0.5 1070.5,-0.5C 1077.38,7.44846 1086.05,12.6151 1096.5,15C 1112.28,18.6411 1128.28,20.4744 1144.5,20.5C 1162.61,43.7519 1180.95,66.7519 1199.5,89.5C 1199.5,90.1667 1199.5,90.8333 1199.5,91.5C 1181.44,89.9301 1165.11,94.4301 1150.5,105C 1131.56,119.103 1115.56,135.936 1102.5,155.5C 1097.77,156.328 1093.1,155.828 1088.5,154C 1082,151.834 1075.84,149.001 1070,145.5C 1034.85,168.765 1012.85,201.099 1004,242.5C 1002.7,252.789 1002.2,263.122 1002.5,273.5C 997.167,273.5 991.833,273.5 986.5,273.5C 985.385,253.474 988.051,233.974 994.5,215C 994.333,214.5 994.167,214 994,213.5C 986.559,217.147 978.726,219.48 970.5,220.5C 970.333,238.17 970.5,255.836 971,273.5C 974.69,290.763 985.19,297.597 1002.5,294C 1011.87,289.427 1016.87,281.927 1017.5,271.5C 1022.83,271.5 1028.17,271.5 1033.5,271.5C 1031.97,292.341 1021.31,305.674 1001.5,311.5C 996.833,311.5 992.167,311.5 987.5,311.5C 967.953,306.442 957.119,293.776 955,273.5C 954.5,256.503 954.333,239.503 954.5,222.5C 938.769,222.889 924.103,219.223 910.5,211.5C 912.339,206.489 914.672,201.822 917.5,197.5C 929.111,203.486 941.445,206.486 954.5,206.5C 954.072,168.811 954.572,131.145 956,93.5C 960.823,67.9936 973.989,48.1603 995.5,34C 1019.92,22.452 1044.26,10.952 1068.5,-0.5 Z M 1065.5,18.5 C 1087,31.1071 1110.34,36.9404 1135.5,36C 1146.83,50 1158.17,64 1169.5,78C 1155.83,82.3348 1143.49,89.0015 1132.5,98C 1118.25,110.411 1105.25,123.911 1093.5,138.5C 1077.72,132.882 1066.22,122.549 1059,107.5C 1054.57,109.144 1050.07,110.477 1045.5,111.5C 1047.54,120.038 1051.54,127.538 1057.5,134C 1051.5,138.667 1045.5,143.333 1039.5,148C 1026.83,162 1014.17,176 1001.5,190C 992.19,196.988 981.857,201.821 970.5,204.5C 970.333,171.165 970.5,137.832 971,104.5C 972.853,80.9481 983.353,62.4481 1002.5,49C 1023.56,38.8022 1044.56,28.6355 1065.5,18.5 Z"/></g>
<g><path style="opacity:0.936" fill="#fefffe" d="M 287.5,58.5 C 297.167,58.5 306.833,58.5 316.5,58.5C 316.333,79.1694 316.5,99.836 317,120.5C 324.438,106.713 335.938,100.213 351.5,101C 363.427,103.653 369.593,111.153 370,123.5C 370.5,140.83 370.667,158.163 370.5,175.5C 374.833,175.5 379.167,175.5 383.5,175.5C 383.5,179.167 383.5,182.833 383.5,186.5C 369.833,186.5 356.167,186.5 342.5,186.5C 342.5,182.833 342.5,179.167 342.5,175.5C 346.5,175.5 350.5,175.5 354.5,175.5C 354.667,158.83 354.5,142.163 354,125.5C 351.705,115.551 345.538,111.717 335.5,114C 327,117.167 321.167,123 318,131.5C 316.568,146.108 316.068,160.775 316.5,175.5C 320.833,175.5 325.167,175.5 329.5,175.5C 329.5,179.167 329.5,182.833 329.5,186.5C 315.5,186.5 301.5,186.5 287.5,186.5C 287.5,182.833 287.5,179.167 287.5,175.5C 292.167,175.5 296.833,175.5 301.5,175.5C 301.5,140.167 301.5,104.833 301.5,69.5C 296.833,69.5 292.167,69.5 287.5,69.5C 287.5,65.8333 287.5,62.1667 287.5,58.5 Z"/></g>
<g><path style="opacity:0.915" fill="#fefffe" d="M 410.5,62.5 C 421.969,61.1347 426.802,66.1347 425,77.5C 419.127,85.9226 412.46,86.5893 405,79.5C 402.15,72.2192 403.983,66.5525 410.5,62.5 Z"/></g>
<g><path style="opacity:0.915" fill="#fefffe" d="M -0.5,64.5 C 17.8333,64.5 36.1667,64.5 54.5,64.5C 54.5,68.1667 54.5,71.8333 54.5,75.5C 48.5,75.5 42.5,75.5 36.5,75.5C 36.5,89.8333 36.5,104.167 36.5,118.5C 55.5,118.5 74.5,118.5 93.5,118.5C 93.5,104.167 93.5,89.8333 93.5,75.5C 87.5,75.5 81.5,75.5 75.5,75.5C 75.5,71.8333 75.5,68.1667 75.5,64.5C 93.8333,64.5 112.167,64.5 130.5,64.5C 130.5,68.1667 130.5,71.8333 130.5,75.5C 123.833,75.5 117.167,75.5 110.5,75.5C 110.5,108.833 110.5,142.167 110.5,175.5C 117.167,175.5 123.833,175.5 130.5,175.5C 130.5,179.167 130.5,182.833 130.5,186.5C 112.167,186.5 93.8333,186.5 75.5,186.5C 75.5,182.833 75.5,179.167 75.5,175.5C 81.5,175.5 87.5,175.5 93.5,175.5C 93.5,159.833 93.5,144.167 93.5,128.5C 74.5,128.5 55.5,128.5 36.5,128.5C 36.5,144.167 36.5,159.833 36.5,175.5C 42.5,175.5 48.5,175.5 54.5,175.5C 54.5,179.167 54.5,182.833 54.5,186.5C 36.1667,186.5 17.8333,186.5 -0.5,186.5C -0.5,182.833 -0.5,179.167 -0.5,175.5C 6.16667,175.5 12.8333,175.5 19.5,175.5C 19.5,142.167 19.5,108.833 19.5,75.5C 12.8333,75.5 6.16667,75.5 -0.5,75.5C -0.5,71.8333 -0.5,68.1667 -0.5,64.5 Z"/></g>
<g><path style="opacity:0.934" fill="#fefffe" d="M 444.5,64.5 C 480.5,64.5 516.5,64.5 552.5,64.5C 552.5,78.8333 552.5,93.1667 552.5,107.5C 549.753,107.813 547.086,107.48 544.5,106.5C 542.975,99.7572 541.142,93.0906 539,86.5C 537.797,79.9637 533.964,76.1303 527.5,75C 520.508,74.5004 513.508,74.3337 506.5,74.5C 506.5,108.167 506.5,141.833 506.5,175.5C 513.833,175.5 521.167,175.5 528.5,175.5C 528.5,179.167 528.5,182.833 528.5,186.5C 508.833,186.5 489.167,186.5 469.5,186.5C 469.5,182.833 469.5,179.167 469.5,175.5C 476.5,175.5 483.5,175.5 490.5,175.5C 490.5,141.833 490.5,108.167 490.5,74.5C 483.492,74.3337 476.492,74.5004 469.5,75C 465.157,76.0095 461.99,78.5095 460,82.5C 457.059,90.3229 454.726,98.3229 453,106.5C 450.281,107.444 447.448,107.777 444.5,107.5C 444.5,93.1667 444.5,78.8333 444.5,64.5 Z"/></g>
<g><path style="opacity:0.949" fill="#fefffe" d="M 245.5,78.5 C 246.833,78.5 248.167,78.5 249.5,78.5C 249.5,86.5 249.5,94.5 249.5,102.5C 258.833,102.5 268.167,102.5 277.5,102.5C 277.5,105.833 277.5,109.167 277.5,112.5C 268.167,112.5 258.833,112.5 249.5,112.5C 249.333,130.503 249.5,148.503 250,166.5C 250.702,174.942 255.202,178.108 263.5,176C 267.834,172.846 270.834,168.68 272.5,163.5C 275.969,162.23 278.636,163.23 280.5,166.5C 273.173,187.583 259.673,192.916 240,182.5C 238.414,180.33 237.08,177.996 236,175.5C 234.546,154.554 234.046,133.554 234.5,112.5C 228.833,112.5 223.167,112.5 217.5,112.5C 217.5,109.167 217.5,105.833 217.5,102.5C 223.167,102.5 228.833,102.5 234.5,102.5C 234.5,95.1667 234.5,87.8333 234.5,80.5C 238.36,80.1916 242.026,79.5249 245.5,78.5 Z"/></g>
<g><path style="opacity:0.951" fill="#fefffe" d="M 845.5,78.5 C 846.833,78.5 848.167,78.5 849.5,78.5C 849.5,86.5 849.5,94.5 849.5,102.5C 858.5,102.5 867.5,102.5 876.5,102.5C 876.5,105.833 876.5,109.167 876.5,112.5C 867.5,112.5 858.5,112.5 849.5,112.5C 849.333,130.836 849.5,149.17 850,167.5C 851.3,175.24 855.8,178.073 863.5,176C 867.791,172.859 870.791,168.692 872.5,163.5C 875.733,162.273 878.4,163.106 880.5,166C 874.12,186.357 861.12,192.357 841.5,184C 838.433,180.703 836.267,176.869 835,172.5C 834.5,152.503 834.333,132.503 834.5,112.5C 828.833,112.5 823.167,112.5 817.5,112.5C 817.5,109.167 817.5,105.833 817.5,102.5C 823.167,102.5 828.833,102.5 834.5,102.5C 834.5,95.1667 834.5,87.8333 834.5,80.5C 838.36,80.1916 842.026,79.5249 845.5,78.5 Z"/></g>
<g><path style="opacity:0.899" fill="#e7771f" d="M 997.5,98.5 C 1002.83,98.5 1008.17,98.5 1013.5,98.5C 1013.5,104.5 1013.5,110.5 1013.5,116.5C 1008.17,116.5 1002.83,116.5 997.5,116.5C 997.5,110.5 997.5,104.5 997.5,98.5 Z"/></g>
<g><path style="opacity:0.926" fill="#fefffe" d="M 169.5,100.5 C 179.012,99.9731 188.012,101.806 196.5,106C 200.257,109.421 202.757,113.588 204,118.5C 204.333,136.5 204.667,154.5 205,172.5C 205.734,174.736 207.234,176.069 209.5,176.5C 212.805,174.691 215.638,172.358 218,169.5C 219.901,170.536 221.735,171.702 223.5,173C 220.279,181.397 214.279,186.231 205.5,187.5C 196.664,186.999 191.664,182.333 190.5,173.5C 178.331,188.041 163.665,191.208 146.5,183C 135.842,171.374 135.842,159.707 146.5,148C 150.443,145.196 154.777,143.196 159.5,142C 167.782,140.077 176.115,138.41 184.5,137C 186.329,136.727 187.829,135.893 189,134.5C 191.381,112.227 181.881,104.727 160.5,112C 158.007,113.583 158.174,115.083 161,116.5C 164.143,125.458 161.143,130.791 152,132.5C 144.945,132.278 141.445,128.611 141.5,121.5C 142.703,112.46 147.703,106.627 156.5,104C 160.919,102.648 165.252,101.481 169.5,100.5 Z M 188.5,143.5 C 189.653,149.319 189.819,155.319 189,161.5C 184.037,174.398 174.871,178.898 161.5,175C 155.031,169.135 153.864,162.302 158,154.5C 159.938,151.894 162.438,150.061 165.5,149C 173.249,146.955 180.915,145.122 188.5,143.5 Z"/></g>
<g><path style="opacity:0.919" fill="#fefffe" d="M 614.5,100.5 C 628.26,102.352 632.427,109.685 627,122.5C 621.667,126.5 616.333,126.5 611,122.5C 608.994,119.464 608.16,116.131 608.5,112.5C 604.203,113.066 600.703,115.066 598,118.5C 595.565,121.934 593.565,125.6 592,129.5C 591.5,144.83 591.333,160.163 591.5,175.5C 596.833,175.5 602.167,175.5 607.5,175.5C 607.5,179.167 607.5,182.833 607.5,186.5C 592.5,186.5 577.5,186.5 562.5,186.5C 562.5,182.833 562.5,179.167 562.5,175.5C 566.833,175.5 571.167,175.5 575.5,175.5C 575.5,154.5 575.5,133.5 575.5,112.5C 571.167,112.5 566.833,112.5 562.5,112.5C 562.5,109.167 562.5,105.833 562.5,102.5C 572.167,102.5 581.833,102.5 591.5,102.5C 591.334,107.511 591.501,112.511 592,117.5C 596.749,108.057 604.249,102.39 614.5,100.5 Z"/></g>
<g><path style="opacity:0.921" fill="#fefffe" d="M 768.5,100.5 C 778.785,99.1494 787.785,101.816 795.5,108.5C 796.549,105.92 797.216,103.254 797.5,100.5C 800.5,100.5 803.5,100.5 806.5,100.5C 806.5,110.5 806.5,120.5 806.5,130.5C 803.428,130.817 800.428,130.484 797.5,129.5C 794.631,121.91 789.965,115.743 783.5,111C 777.024,108.801 770.691,109.135 764.5,112C 757.559,121.829 759.893,128.829 771.5,133C 779.511,135.669 787.511,138.335 795.5,141C 811.07,149.057 814.57,160.89 806,176.5C 797.008,186.546 785.841,190.046 772.5,187C 765.776,185.939 760.276,182.772 756,177.5C 755.111,180.687 754.278,183.853 753.5,187C 750.518,187.498 747.518,187.665 744.5,187.5C 744.5,176.833 744.5,166.167 744.5,155.5C 747.833,155.5 751.167,155.5 754.5,155.5C 760.159,175.708 772.826,182.541 792.5,176C 797.833,170 797.833,164 792.5,158C 781.424,153.084 770.09,148.751 758.5,145C 748.011,139.178 744.178,130.345 747,118.5C 750.952,108.614 758.119,102.614 768.5,100.5 Z"/></g>
<g><path style="opacity:0.94" fill="#fefffe" d="M 392.5,102.5 C 402.833,102.5 413.167,102.5 423.5,102.5C 423.5,126.833 423.5,151.167 423.5,175.5C 428.833,175.5 434.167,175.5 439.5,175.5C 439.5,179.167 439.5,182.833 439.5,186.5C 423.833,186.5 408.167,186.5 392.5,186.5C 392.5,182.833 392.5,179.167 392.5,175.5C 397.833,175.5 403.167,175.5 408.5,175.5C 408.5,154.5 408.5,133.5 408.5,112.5C 403.167,112.5 397.833,112.5 392.5,112.5C 392.5,109.167 392.5,105.833 392.5,102.5 Z"/></g>
<g><path style="opacity:0.944" fill="#fefffe" d="M 637.5,102.5 C 647.167,102.5 656.833,102.5 666.5,102.5C 666.333,121.503 666.5,140.503 667,159.5C 669.98,175.05 678.48,178.883 692.5,171C 698.222,166.383 702.056,160.55 704,153.5C 704.5,139.837 704.667,126.171 704.5,112.5C 699.833,112.5 695.167,112.5 690.5,112.5C 690.5,109.167 690.5,105.833 690.5,102.5C 700.167,102.5 709.833,102.5 719.5,102.5C 719.5,126.833 719.5,151.167 719.5,175.5C 724.167,175.5 728.833,175.5 733.5,175.5C 733.5,179.167 733.5,182.833 733.5,186.5C 723.833,186.5 714.167,186.5 704.5,186.5C 704.666,180.491 704.499,174.491 704,168.5C 700.053,174.903 694.886,180.07 688.5,184C 679.152,188.618 669.819,188.618 660.5,184C 655.715,179.931 652.881,174.764 652,168.5C 651.5,149.836 651.333,131.17 651.5,112.5C 646.833,112.5 642.167,112.5 637.5,112.5C 637.5,109.167 637.5,105.833 637.5,102.5 Z"/></g>
</svg>
