<?xml version="1.0" encoding="UTF-8"?>
<!DOCTYPE svg PUBLIC "-//W3C//DTD SVG 1.1//EN" "http://www.w3.org/Graphics/SVG/1.1/DTD/svg11.dtd">
<svg xmlns="http://www.w3.org/2000/svg" version="1.1" viewBox="0 0 450 600" style="shape-rendering:geometricPrecision; text-rendering:geometricPrecision; image-rendering:optimizeQuality; fill-rule:evenodd; clip-rule:evenodd" xmlns:xlink="http://www.w3.org/1999/xlink">
<g><path style="opacity:0.941" fill="#e67620" d="M 233.5,-0.5 C 234.833,-0.5 236.167,-0.5 237.5,-0.5C 242.28,5.06749 248.28,8.90082 255.5,11C 268.928,14.5534 282.594,16.2201 296.5,16C 311.861,34.5599 326.861,53.3932 341.5,72.5C 326.883,72.6527 313.549,76.8194 301.5,85C 286.42,96.7452 273.42,110.412 262.5,126C 253.025,125.769 244.358,122.936 236.5,117.5C 199.747,142.335 181.414,177.002 181.5,221.5C 177.167,221.5 172.833,221.5 168.5,221.5C 167.81,204.683 169.976,188.349 175,172.5C 169.261,175.802 163.094,177.802 156.5,178.5C 156.333,193.837 156.5,209.17 157,224.5C 161.728,237.448 170.561,241.614 183.5,237C 190.063,233.044 193.396,227.211 193.5,219.5C 197.833,219.5 202.167,219.5 206.5,219.5C 203.991,244.429 190.324,254.929 165.5,251C 154.599,247.099 147.432,239.599 144,228.5C 143.5,212.503 143.333,196.503 143.5,180.5C 131.681,180.212 120.348,177.712 109.5,173C 108.484,172.481 107.818,171.647 107.5,170.5C 108.592,166.552 110.258,162.885 112.5,159.5C 122.232,164.516 132.565,166.85 143.5,166.5C 143.333,135.832 143.5,105.165 144,74.5C 148.534,53.6519 159.701,37.4852 177.5,26C 196.379,17.3917 215.045,8.55837 233.5,-0.5 Z M 233.5,14.5 C 245.497,22.666 258.83,27.166 273.5,28C 278.833,28.3333 284.167,28.6667 289.5,29C 298.69,40.022 307.69,51.1887 316.5,62.5C 301.452,68.3947 288.119,76.8947 276.5,88C 269.264,95.8969 262.097,103.73 255,111.5C 242.99,106.825 234.156,98.6583 228.5,87C 224.817,87.555 221.15,88.555 217.5,90C 218.001,97.0034 221.001,103.003 226.5,108C 222.656,110.422 218.99,113.089 215.5,116C 203.701,127.954 192.367,140.287 181.5,153C 174.099,158.618 165.932,162.784 157,165.5C 156.333,136.167 156.333,106.833 157,77.5C 160.485,59.6726 169.985,46.1726 185.5,37C 201.711,29.725 217.711,22.225 233.5,14.5 Z"/></g>
<g><path style="opacity:0.889" fill="#e77620" d="M 177.5,79.5 C 181.833,79.5 186.167,79.5 190.5,79.5C 190.5,84.5 190.5,89.5 190.5,94.5C 186.167,94.5 181.833,94.5 177.5,94.5C 177.5,89.5 177.5,84.5 177.5,79.5 Z"/></g>
<g><path style="opacity:0.941" fill="#505758" d="M 294.5,312.5 C 304.5,312.5 314.5,312.5 324.5,312.5C 324.333,333.836 324.5,355.169 325,376.5C 334.031,360.399 347.531,354.232 365.5,358C 374.517,362.705 379.017,370.205 379,380.5C 379.5,398.164 379.667,415.83 379.5,433.5C 384.167,433.5 388.833,433.5 393.5,433.5C 393.5,436.833 393.5,440.167 393.5,443.5C 379.167,443.5 364.833,443.5 350.5,443.5C 350.5,440.167 350.5,436.833 350.5,433.5C 354.833,433.5 359.167,433.5 363.5,433.5C 363.667,416.83 363.5,400.163 363,383.5C 361.291,372.221 354.791,367.721 343.5,370C 335,373.167 329.167,379 326,387.5C 324.548,402.762 324.048,418.095 324.5,433.5C 328.833,433.5 333.167,433.5 337.5,433.5C 337.5,436.833 337.5,440.167 337.5,443.5C 323.167,443.5 308.833,443.5 294.5,443.5C 294.5,440.167 294.5,436.833 294.5,433.5C 299.167,433.5 303.833,433.5 308.5,433.5C 308.5,397.167 308.5,360.833 308.5,324.5C 303.833,324.5 299.167,324.5 294.5,324.5C 294.5,320.5 294.5,316.5 294.5,312.5 Z"/></g>
<g><path style="opacity:0.939" fill="#515758" d="M 423.5,316.5 C 433.755,317.65 437.588,323.317 435,333.5C 431.565,338.794 426.732,340.627 420.5,339C 413.062,334.423 411.562,328.257 416,320.5C 418.255,318.501 420.755,317.168 423.5,316.5 Z"/></g>
<g><path style="opacity:0.946" fill="#505758" d="M -0.5,319.5 C 18.1667,319.5 36.8333,319.5 55.5,319.5C 55.5,323.167 55.5,326.833 55.5,330.5C 49.5,330.5 43.5,330.5 37.5,330.5C 37.5,345.167 37.5,359.833 37.5,374.5C 57.1667,374.5 76.8333,374.5 96.5,374.5C 96.5,359.833 96.5,345.167 96.5,330.5C 90.1667,330.5 83.8333,330.5 77.5,330.5C 77.5,326.833 77.5,323.167 77.5,319.5C 96.5,319.5 115.5,319.5 134.5,319.5C 134.5,323.167 134.5,326.833 134.5,330.5C 127.5,330.5 120.5,330.5 113.5,330.5C 113.5,364.833 113.5,399.167 113.5,433.5C 120.5,433.5 127.5,433.5 134.5,433.5C 134.5,436.833 134.5,440.167 134.5,443.5C 115.5,443.5 96.5,443.5 77.5,443.5C 77.5,440.167 77.5,436.833 77.5,433.5C 83.8333,433.5 90.1667,433.5 96.5,433.5C 96.5,417.167 96.5,400.833 96.5,384.5C 76.8333,384.5 57.1667,384.5 37.5,384.5C 37.5,400.833 37.5,417.167 37.5,433.5C 43.5,433.5 49.5,433.5 55.5,433.5C 55.5,436.833 55.5,440.167 55.5,443.5C 36.8333,443.5 18.1667,443.5 -0.5,443.5C -0.5,440.167 -0.5,436.833 -0.5,433.5C 6.5,433.5 13.5,433.5 20.5,433.5C 20.5,399.167 20.5,364.833 20.5,330.5C 13.5,330.5 6.5,330.5 -0.5,330.5C -0.5,326.833 -0.5,323.167 -0.5,319.5 Z"/></g>
<g><path style="opacity:0.941" fill="#505758" d="M 253.5,333.5 C 254.5,333.5 255.5,333.5 256.5,333.5C 256.5,341.833 256.5,350.167 256.5,358.5C 265.5,358.5 274.5,358.5 283.5,358.5C 283.5,361.833 283.5,365.167 283.5,368.5C 274.5,368.5 265.5,368.5 256.5,368.5C 256.035,389.234 256.535,409.9 258,430.5C 263.292,435.82 268.626,435.82 274,430.5C 276.095,426.635 278.428,422.968 281,419.5C 283.633,419.923 285.799,421.09 287.5,423C 281.447,443.526 268.447,449.86 248.5,442C 245.567,439.736 243.4,436.902 242,433.5C 240.544,411.887 240.044,390.22 240.5,368.5C 234.833,368.5 229.167,368.5 223.5,368.5C 223.5,365.167 223.5,361.833 223.5,358.5C 229.167,358.5 234.833,358.5 240.5,358.5C 240.5,350.833 240.5,343.167 240.5,335.5C 245.028,335.23 249.361,334.563 253.5,333.5 Z"/></g>
<g><path style="opacity:0.941" fill="#515758" d="M 170.5,356.5 C 181.428,355.245 191.762,357.079 201.5,362C 205.257,365.421 207.757,369.588 209,374.5C 209.037,393.898 209.704,413.231 211,432.5C 213.064,433.591 215.231,433.758 217.5,433C 219.53,431.104 221.197,428.937 222.5,426.5C 224.882,427.351 226.882,428.684 228.5,430.5C 222.402,445.141 212.569,448.474 199,440.5C 197.363,437.283 196.03,433.95 195,430.5C 184.491,444.113 170.991,448.279 154.5,443C 144.101,437.169 140.268,428.335 143,416.5C 146.335,407.166 152.835,401.333 162.5,399C 172.491,396.724 182.491,394.558 192.5,392.5C 198.127,372.512 190.794,363.679 170.5,366C 167.592,366.689 164.925,367.855 162.5,369.5C 167.777,375.33 167.777,381.163 162.5,387C 146.749,389.892 141.916,383.726 148,368.5C 154.239,361.966 161.739,357.966 170.5,356.5 Z M 191.5,400.5 C 198.707,418.75 192.707,430.083 173.5,434.5C 160.871,432.178 156.704,424.844 161,412.5C 163.264,409.567 166.098,407.4 169.5,406C 176.881,403.836 184.214,402.002 191.5,400.5 Z"/></g>
<g><path style="opacity:0.974" fill="#4f5758" d="M 449.5,433.5 C 449.5,436.833 449.5,440.167 449.5,443.5C 433.833,443.5 418.167,443.5 402.5,443.5C 402.5,440.167 402.5,436.833 402.5,433.5C 407.833,433.5 413.167,433.5 418.5,433.5C 418.5,411.833 418.5,390.167 418.5,368.5C 413.167,368.5 407.833,368.5 402.5,368.5C 402.5,364.833 402.5,361.167 402.5,357.5C 412.833,357.5 423.167,357.5 433.5,357.5C 433.5,382.833 433.5,408.167 433.5,433.5C 438.833,433.5 444.167,433.5 449.5,433.5 Z"/></g>
<g><path style="opacity:0.961" fill="#505758" d="M 1.5,474.5 C 38.1667,474.5 74.8333,474.5 111.5,474.5C 111.5,488.833 111.5,503.167 111.5,517.5C 108.753,517.813 106.086,517.48 103.5,516.5C 101.668,509.839 99.8346,503.172 98,496.5C 96.1156,488.284 90.949,484.117 82.5,484C 76.8431,483.501 71.1764,483.334 65.5,483.5C 65.5,518.167 65.5,552.833 65.5,587.5C 72.5,587.5 79.5,587.5 86.5,587.5C 86.5,591.167 86.5,594.833 86.5,598.5C 66.5,598.5 46.5,598.5 26.5,598.5C 26.5,594.833 26.5,591.167 26.5,587.5C 33.8333,587.5 41.1667,587.5 48.5,587.5C 48.5,552.833 48.5,518.167 48.5,483.5C 42.4908,483.334 36.4908,483.501 30.5,484C 23.0556,483.966 18.2223,487.466 16,494.5C 13.6886,501.746 11.6886,509.079 10,516.5C 7.28086,517.444 4.44753,517.777 1.5,517.5C 1.5,503.167 1.5,488.833 1.5,474.5 Z"/></g>
<g><path style="opacity:0.952" fill="#505758" d="M 429.5,599.5 C 424.167,599.5 418.833,599.5 413.5,599.5C 406.658,596.817 402.491,591.817 401,584.5C 400.5,564.169 400.333,543.836 400.5,523.5C 394.5,523.5 388.5,523.5 382.5,523.5C 382.5,519.833 382.5,516.167 382.5,512.5C 388.5,512.5 394.5,512.5 400.5,512.5C 400.334,505.159 400.5,497.826 401,490.5C 405.713,489.232 410.546,488.565 415.5,488.5C 415.5,496.5 415.5,504.5 415.5,512.5C 424.833,512.5 434.167,512.5 443.5,512.5C 443.5,516.167 443.5,519.833 443.5,523.5C 434.167,523.5 424.833,523.5 415.5,523.5C 415.333,541.503 415.5,559.503 416,577.5C 416.785,585.965 421.285,589.465 429.5,588C 431.624,586.878 433.457,585.378 435,583.5C 436.579,580.006 438.413,576.673 440.5,573.5C 443.317,574.095 445.65,575.428 447.5,577.5C 445.238,588.092 439.238,595.425 429.5,599.5 Z"/></g>
<g><path style="opacity:0.95" fill="#515758" d="M 354.5,599.5 C 348.167,599.5 341.833,599.5 335.5,599.5C 329.475,597.669 324.308,594.335 320,589.5C 318.974,592.802 318.14,596.135 317.5,599.5C 314.5,599.5 311.5,599.5 308.5,599.5C 308.5,588.5 308.5,577.5 308.5,566.5C 311.833,566.5 315.167,566.5 318.5,566.5C 322.427,582.795 332.761,590.961 349.5,591C 359.878,588.745 363.378,582.579 360,572.5C 358.127,570.291 355.96,568.458 353.5,567C 344.56,563.848 335.56,560.848 326.5,558C 309.291,549.673 305.458,537.173 315,520.5C 325.92,510.583 338.42,508.083 352.5,513C 355.341,514.586 358.007,516.42 360.5,518.5C 361.549,515.92 362.216,513.254 362.5,510.5C 365.5,510.5 368.5,510.5 371.5,510.5C 371.5,520.5 371.5,530.5 371.5,540.5C 368.482,540.665 365.482,540.498 362.5,540C 359.391,533.116 355.058,527.116 349.5,522C 343.614,519.234 337.614,518.901 331.5,521C 325.397,524.04 323.231,528.874 325,535.5C 325.785,537.286 326.951,538.786 328.5,540C 331.833,541.667 335.167,543.333 338.5,545C 347.381,547.405 356.047,550.405 364.5,554C 374.105,559.865 377.605,568.365 375,579.5C 371.547,589.788 364.714,596.455 354.5,599.5 Z"/></g>
<g><path style="opacity:0.934" fill="#505758" d="M 169.5,511.5 C 174.628,511.112 179.628,511.612 184.5,513C 191.597,519.432 192.263,526.432 186.5,534C 175.239,538.532 169.239,534.699 168.5,522.5C 160.067,525.768 154.567,531.768 152,540.5C 151.5,556.163 151.333,571.83 151.5,587.5C 157.167,587.5 162.833,587.5 168.5,587.5C 168.5,591.167 168.5,594.833 168.5,598.5C 152.833,598.5 137.167,598.5 121.5,598.5C 121.5,594.833 121.5,591.167 121.5,587.5C 126.167,587.5 130.833,587.5 135.5,587.5C 135.5,566.167 135.5,544.833 135.5,523.5C 130.833,523.5 126.167,523.5 121.5,523.5C 121.5,519.833 121.5,516.167 121.5,512.5C 131.5,512.5 141.5,512.5 151.5,512.5C 151.334,517.511 151.501,522.511 152,527.5C 156.153,520.174 161.986,514.84 169.5,511.5 Z"/></g>
<g><path style="opacity:0.947" fill="#505758" d="M 243.5,599.5 C 238.5,599.5 233.5,599.5 228.5,599.5C 221.031,596.189 216.197,590.522 214,582.5C 213.5,562.836 213.333,543.169 213.5,523.5C 208.833,523.5 204.167,523.5 199.5,523.5C 199.5,519.833 199.5,516.167 199.5,512.5C 209.167,512.5 218.833,512.5 228.5,512.5C 228.333,532.169 228.5,551.836 229,571.5C 230.14,583.49 236.64,588.324 248.5,586C 258.357,581.481 264.524,573.981 267,563.5C 267.5,550.171 267.667,536.837 267.5,523.5C 262.5,523.5 257.5,523.5 252.5,523.5C 252.5,519.833 252.5,516.167 252.5,512.5C 262.833,512.5 273.167,512.5 283.5,512.5C 283.5,537.5 283.5,562.5 283.5,587.5C 288.167,587.5 292.833,587.5 297.5,587.5C 297.5,591.167 297.5,594.833 297.5,598.5C 287.5,598.5 277.5,598.5 267.5,598.5C 267.666,592.158 267.5,585.825 267,579.5C 261.402,588.942 253.568,595.609 243.5,599.5 Z"/></g>
</svg>
